<svg version="1.1" id="Layer_1" xmlns="http://www.w3.org/2000/svg" xmlns:xlink="http://www.w3.org/1999/xlink" x="0px" y="0px"
	 width="100%" viewBox="0 0 1500 1500" enable-background="new 0 0 1500 1500" xml:space="preserve">
<path fill="#000000" opacity="1.000000" stroke="none" 
	d="
M791.000000,1501.000000 
	C527.333374,1501.000000 264.166748,1501.000000 1.000106,1501.000000 
	C1.000071,1001.000122 1.000071,501.000275 1.000035,1.000307 
	C500.999756,1.000205 1000.999512,1.000205 1500.999512,1.000102 
	C1500.999634,500.999664 1500.999634,1000.999329 1500.999756,1500.999512 
	C1264.500000,1501.000000 1028.000000,1501.000000 791.000000,1501.000000 
M903.922363,1217.980591 
	C923.947327,1217.931763 943.972229,1217.883057 964.924744,1217.980225 
	C986.616760,1217.932129 1008.308838,1217.884033 1030.928101,1217.980957 
	C1054.284424,1217.932617 1077.640869,1217.884277 1101.925171,1217.979736 
	C1122.616211,1217.931030 1143.307251,1217.882446 1164.926025,1217.976807 
	C1182.012939,1217.976807 1199.099976,1217.976807 1216.139160,1217.976807 
	C1216.139160,1165.735962 1216.139160,1114.173706 1216.139160,1062.266602 
	C1199.544434,1062.266602 1183.273926,1062.266602 1166.326660,1062.116333 
	C1165.872437,1062.177612 1165.418213,1062.238892 1164.531128,1062.225342 
	C1164.204712,1062.384399 1164.109863,1062.632080 1164.041870,1063.889893 
	C1164.029541,1066.551636 1164.006592,1069.213257 1164.006348,1071.875000 
	C1164.003784,1101.821045 1163.930420,1131.767578 1164.090454,1161.712769 
	C1164.112793,1165.900269 1162.857788,1167.495605 1158.690308,1167.037476 
	C1154.279907,1166.552734 1149.839600,1166.098022 1145.410156,1166.076904 
	C1130.940918,1166.007935 1116.470825,1166.142334 1101.073608,1166.053711 
	C1077.716309,1166.102783 1054.358887,1166.151855 1030.073486,1166.056152 
	C1008.382202,1166.104614 986.690857,1166.153076 964.072021,1166.056030 
	C944.046570,1166.104614 924.021057,1166.153320 903.069092,1166.055298 
	C883.377991,1166.104248 863.686829,1166.153198 843.069336,1166.054810 
	C821.378418,1166.103882 799.687500,1166.152954 777.069946,1166.055420 
	C754.045288,1166.105347 731.020691,1166.155151 707.069641,1166.056885 
	C685.379150,1166.106323 663.688599,1166.155640 641.071777,1166.054565 
	C621.380920,1166.103271 601.690063,1166.151978 581.072876,1166.050049 
	C559.046448,1166.101318 537.020081,1166.152466 514.067322,1166.057373 
	C487.707581,1166.108154 461.347839,1166.158936 434.063324,1166.057373 
	C405.704468,1166.106689 377.345612,1166.156006 348.063782,1166.056030 
	C343.122498,1166.056030 338.181213,1166.056030 333.252777,1166.056030 
	C333.252777,888.727295 333.252777,611.965088 333.252777,334.789398 
	C338.710663,334.789398 343.851440,334.789398 349.918823,334.949768 
	C371.277222,334.897797 392.635651,334.845825 414.919861,334.954468 
	C439.611023,334.899536 464.302155,334.844604 489.919250,334.950348 
	C514.611145,334.897644 539.302979,334.844940 564.920654,334.952362 
	C590.610718,334.898621 616.300720,334.844910 642.917297,334.950256 
	C668.609558,334.898499 694.301819,334.846741 720.920532,334.952057 
	C744.612549,334.900726 768.304565,334.849365 792.922668,334.953918 
	C814.613708,334.901825 836.304749,334.849762 858.922546,334.951477 
	C878.614136,334.900330 898.305725,334.849182 918.923767,334.951324 
	C939.948975,334.900238 960.974121,334.849152 982.925659,334.950714 
	C1007.284180,334.899994 1031.642700,334.849274 1056.927246,334.950897 
	C1085.619995,334.901154 1114.312744,334.851440 1143.931152,334.953156 
	C1150.527100,334.953156 1157.122925,334.953156 1164.278931,334.953156 
	C1164.278931,369.994019 1164.278931,404.364105 1164.278931,438.530670 
	C1181.926392,438.530670 1198.995972,438.530670 1216.160156,438.530670 
	C1216.160156,386.569733 1216.160156,335.004822 1216.160156,283.166809 
	C1191.570923,283.166809 1167.283691,283.166809 1142.068481,283.029541 
	C1113.711304,283.074890 1085.354248,283.120239 1056.069214,283.027252 
	C1031.711792,283.073578 1007.354431,283.119873 982.069275,283.026917 
	C961.044556,283.073151 940.019836,283.119415 918.067932,283.025482 
	C898.377502,283.072052 878.687134,283.118622 858.069275,283.024292 
	C836.377991,283.071381 814.686768,283.118469 792.068054,283.025635 
	C768.043945,283.072327 744.019775,283.119019 719.068298,283.024811 
	C693.377563,283.071838 667.686890,283.118866 641.068726,283.024719 
	C615.710999,283.071747 590.353210,283.118774 564.068176,283.024414 
	C539.377563,283.071808 514.686951,283.119171 489.069122,283.023499 
	C464.378021,283.071320 439.686951,283.119141 414.068726,283.023804 
	C392.711395,283.071075 371.354034,283.118347 349.069824,283.020020 
	C326.170837,283.020020 303.271851,283.020020 280.431946,283.020020 
	C280.431946,595.047363 280.431946,906.278870 280.431946,1217.838013 
	C303.105316,1217.838013 325.548767,1217.838013 348.919495,1217.991943 
	C377.278137,1217.940063 405.636780,1217.888062 434.922821,1217.986206 
	C461.281097,1217.936523 487.639404,1217.886963 514.923889,1217.990234 
	C536.949280,1217.939697 558.974609,1217.889160 581.926941,1217.985596 
	C601.950684,1217.935303 621.974426,1217.885010 642.925354,1217.982788 
	C664.615723,1217.932983 686.306030,1217.883301 708.923584,1217.982910 
	C731.614258,1217.933472 754.304871,1217.884033 777.923035,1217.983032 
	C799.614258,1217.933594 821.305481,1217.884277 843.924316,1217.981201 
	C863.614319,1217.932373 883.304260,1217.883423 903.922363,1217.980591 
M777.048401,461.503082 
	C749.366028,461.506775 721.683716,461.510498 693.085876,461.301270 
	C668.718750,461.369141 644.351685,461.437012 619.070557,461.297882 
	C589.650696,461.280121 560.230835,461.256439 530.810974,461.264252 
	C529.508606,461.264587 528.206360,461.551880 526.682800,461.480072 
	C526.682800,461.480072 526.426453,461.664459 526.426453,461.664459 
	C526.426453,461.664459 526.485840,461.974640 526.176758,462.868835 
	C526.159241,463.534790 526.126465,464.200714 526.126465,464.866669 
	C526.124634,653.106873 526.124268,841.347046 526.140564,1029.587280 
	C526.140686,1031.068604 526.368713,1032.550049 526.432251,1034.342285 
	C526.432251,1034.342285 526.692932,1034.520996 526.692932,1034.520996 
	C526.692932,1034.520996 526.912109,1034.293091 527.789490,1034.673828 
	C554.394165,1034.673828 580.998779,1034.673828 608.121460,1034.673828 
	C608.121460,950.337280 608.121460,866.475220 608.121460,781.950745 
	C616.422546,781.950745 624.209534,781.950745 632.916870,782.145508 
	C646.531677,782.156799 660.146606,782.201172 673.761353,782.171875 
	C695.173950,782.125793 716.586365,782.030090 738.918579,782.150024 
	C744.232422,782.169861 749.548401,782.100891 754.859802,782.225464 
	C774.686035,782.690430 792.540588,788.886292 806.953857,802.577515 
	C815.055786,810.273621 821.673889,819.531921 829.079773,828.775330 
	C833.720703,839.578186 839.215332,850.104492 842.823242,861.242004 
	C850.122253,883.774353 851.137146,907.231140 851.338989,930.768738 
	C851.516174,951.431396 853.193054,971.976624 860.026733,991.735535 
	C866.641785,1010.862305 879.023560,1024.581421 898.411560,1032.693604 
	C922.710510,1042.023315 947.130493,1041.760742 971.695862,1033.750977 
	C974.830078,1032.729004 976.237976,1031.247803 975.963379,1027.715210 
	C975.590271,1022.916016 975.603455,1018.046143 975.959778,1013.244446 
	C976.218445,1009.758484 974.902344,1008.310059 971.738403,1007.207214 
	C958.346680,1002.539490 948.215942,994.260193 943.554749,980.382385 
	C941.916870,975.506104 940.243530,970.611084 939.087097,965.608887 
	C933.762451,942.577087 933.915100,919.074219 932.976624,895.630798 
	C932.379700,880.721375 931.330933,865.702698 928.778259,851.029907 
	C925.274719,830.891418 917.452576,812.195923 905.024841,794.943420 
	C889.635010,772.486206 869.841187,755.296814 844.784729,744.309875 
	C843.310364,743.663330 842.378967,741.778564 841.194824,740.470093 
	C842.607117,739.631165 843.919312,738.428284 845.446716,738.008484 
	C864.687988,732.720703 882.000488,723.898376 897.341797,710.073181 
	C904.567749,701.608337 912.694092,693.748230 918.858093,684.570251 
	C941.142456,651.389709 947.423096,614.308960 942.457214,575.268738 
	C938.665588,545.460205 924.700867,520.867615 900.627319,501.504974 
	C896.725281,498.790253 892.911011,495.937988 888.906250,493.384277 
	C870.650635,481.743134 851.320312,472.567688 829.295898,467.765656 
	C812.408875,463.793884 795.318298,461.563965 777.048401,461.503082 
z"/>
<path fill="#6DDDF4" opacity="1.000000" stroke="none" 
	d="
M347.992249,1217.838013 
	C325.548767,1217.838013 303.105316,1217.838013 280.431946,1217.838013 
	C280.431946,906.278870 280.431946,595.047363 280.431946,283.020020 
	C303.271851,283.020020 326.170837,283.020020 349.451447,283.492188 
	C349.555359,286.259308 349.049042,288.553040 349.037201,290.849365 
	C348.961578,305.495728 348.994812,320.142670 348.992249,334.789398 
	C343.851440,334.789398 338.710663,334.789398 333.252777,334.789398 
	C333.252777,611.965088 333.252777,888.727295 333.252777,1166.056030 
	C338.181213,1166.056030 343.122498,1166.056030 348.527710,1166.586182 
	C348.994843,1181.572876 349.044800,1196.029419 348.955780,1210.485352 
	C348.940674,1212.938110 348.328552,1215.387207 347.992249,1217.838013 
z"/>
<path fill="#6AACF3" opacity="1.000000" stroke="none" 
	d="
M631.996460,781.950745 
	C624.209534,781.950745 616.422546,781.950745 608.121460,781.950745 
	C608.121460,866.475220 608.121460,950.337280 608.121460,1034.673828 
	C580.998779,1034.673828 554.394165,1034.673828 527.305359,1034.406738 
	C526.821228,1034.139648 526.490356,1034.031372 526.490356,1034.031372 
	C526.368713,1032.550049 526.140686,1031.068604 526.140564,1029.587280 
	C526.124268,841.347046 526.124634,653.106873 526.126465,464.866669 
	C526.126465,464.200714 526.159241,463.534790 526.420654,462.413452 
	C526.664490,461.958038 526.904053,461.705505 526.904053,461.705505 
	C528.206360,461.551880 529.508606,461.264587 530.810974,461.264252 
	C560.230835,461.256439 589.650696,461.280121 619.530457,461.837463 
	C619.325562,486.778717 618.660706,511.180420 617.544556,535.677307 
	C614.169495,535.772522 611.245789,535.772522 608.343384,535.772522 
	C608.343384,593.508606 608.343384,650.526978 608.343384,708.118042 
	C617.087708,708.118042 625.541260,708.118042 633.994995,708.543640 
	C633.328918,733.296387 632.662659,757.623596 631.996460,781.950745 
z"/>
<path fill="#6890F2" opacity="1.000000" stroke="none" 
	d="
M896.787231,710.360901 
	C882.000488,723.898376 864.687988,732.720703 845.446716,738.008484 
	C843.919312,738.428284 842.607117,739.631165 841.194824,740.470093 
	C842.378967,741.778564 843.310364,743.663330 844.784729,744.309875 
	C869.841187,755.296814 889.635010,772.486206 904.928833,795.676025 
	C904.223267,805.666443 903.434448,814.916931 903.048157,824.184082 
	C902.535767,836.475098 902.337646,848.779236 902.004456,861.077698 
	C901.671326,873.376221 901.334229,885.674561 901.005859,897.973206 
	C900.335876,923.070007 899.605469,948.165466 899.024414,973.264343 
	C898.570068,992.892334 898.303223,1012.524719 897.953003,1032.155151 
	C879.023560,1024.581421 866.641785,1010.862305 860.026733,991.735535 
	C853.193054,971.976624 851.516174,951.431396 851.338989,930.768738 
	C851.137146,907.231140 850.122253,883.774353 842.823242,861.242004 
	C839.215332,850.104492 833.720703,839.578186 829.179565,828.073181 
	C829.845764,825.298828 830.797791,823.247559 830.911926,821.150696 
	C831.407776,812.046265 831.700745,802.929871 831.989075,793.815308 
	C832.361389,782.043091 832.754333,770.270142 832.968262,758.494507 
	C833.375549,736.079956 833.699951,713.663513 833.929138,691.246582 
	C833.947876,689.415100 832.976013,687.573486 832.655762,685.448547 
	C837.880310,679.683411 843.549011,674.659363 847.833984,668.648804 
	C864.234131,645.644287 865.231506,620.188293 858.193298,593.894836 
	C853.324585,575.706482 841.797302,562.099487 827.071777,550.589294 
	C827.759644,539.926147 828.613647,529.681702 828.931885,519.420654 
	C829.462463,502.316498 829.649841,485.201691 829.981689,468.091339 
	C851.320312,472.567688 870.650635,481.743134 888.906250,493.384277 
	C892.911011,495.937988 896.725281,498.790253 900.727661,502.200439 
	C900.552246,504.859009 900.096313,506.816071 900.030090,508.786255 
	C899.639282,520.399597 899.314819,532.015442 899.013306,543.631592 
	C898.328308,570.023560 897.686523,596.416687 896.991455,622.808411 
	C896.716187,633.260437 896.278564,643.708313 896.034180,654.160889 
	C895.638184,671.099731 895.284363,688.040222 895.084412,704.982056 
	C895.063354,706.768066 896.192017,708.567627 896.787231,710.360901 
z"/>
<path fill="#645AF0" opacity="1.000000" stroke="none" 
	d="
M1142.996460,283.166809 
	C1167.283691,283.166809 1191.570923,283.166809 1216.160156,283.166809 
	C1216.160156,335.004822 1216.160156,386.569733 1216.160156,438.530670 
	C1198.995972,438.530670 1181.926392,438.530670 1164.278931,438.530670 
	C1164.278931,404.364105 1164.278931,369.994019 1164.278931,334.953156 
	C1157.122925,334.953156 1150.527100,334.953156 1143.466309,334.421570 
	C1142.999756,316.982239 1142.998169,300.074524 1142.996460,283.166809 
z"/>
<path fill="#6789F1" opacity="1.000000" stroke="none" 
	d="
M898.182251,1032.424316 
	C898.303223,1012.524719 898.570068,992.892334 899.024414,973.264343 
	C899.605469,948.165466 900.335876,923.070007 901.005859,897.973206 
	C901.334229,885.674561 901.671326,873.376221 902.004456,861.077698 
	C902.337646,848.779236 902.535767,836.475098 903.048157,824.184082 
	C903.434448,814.916931 904.223267,805.666443 905.010620,795.998169 
	C917.452576,812.195923 925.274719,830.891418 928.778259,851.029907 
	C931.330933,865.702698 932.379700,880.721375 932.976624,895.630798 
	C933.915100,919.074219 933.762451,942.577087 939.087097,965.608887 
	C940.243530,970.611084 941.916870,975.506104 943.554749,980.382385 
	C948.215942,994.260193 958.346680,1002.539490 971.738403,1007.207214 
	C974.902344,1008.310059 976.218445,1009.758484 975.959778,1013.244446 
	C975.603455,1018.046143 975.590271,1022.916016 975.963379,1027.715210 
	C976.237976,1031.247803 974.830078,1032.729004 971.695862,1033.750977 
	C947.130493,1041.760742 922.710510,1042.023315 898.182251,1032.424316 
z"/>
<path fill="#6997F2" opacity="1.000000" stroke="none" 
	d="
M832.464478,685.736572 
	C832.976013,687.573486 833.947876,689.415100 833.929138,691.246582 
	C833.699951,713.663513 833.375549,736.079956 832.968262,758.494507 
	C832.754333,770.270142 832.361389,782.043091 831.989075,793.815308 
	C831.700745,802.929871 831.407776,812.046265 830.911926,821.150696 
	C830.797791,823.247559 829.845764,825.298828 829.119873,827.728760 
	C821.673889,819.531921 815.055786,810.273621 806.953857,802.577515 
	C792.540588,788.886292 774.686035,782.690430 754.859802,782.225464 
	C749.548401,782.100891 744.232422,782.169861 738.459290,781.586975 
	C738.665710,756.721130 739.331421,732.418274 740.459351,708.031494 
	C744.249878,707.938293 747.578308,707.950623 750.906250,707.915771 
	C760.221924,707.818359 769.559631,708.071594 778.848511,707.516296 
	C799.109680,706.305115 816.710388,698.213318 832.464478,685.736572 
z"/>
<path fill="#69A1F3" opacity="1.000000" stroke="none" 
	d="
M739.997131,708.115479 
	C739.331421,732.418274 738.665710,756.721130 737.999451,781.489685 
	C716.586365,782.030090 695.173950,782.125793 673.761353,782.171875 
	C660.146606,782.201172 646.531677,782.156799 632.456665,782.048096 
	C632.662659,757.623596 633.328918,733.296387 634.457520,708.459351 
	C669.945679,708.004761 704.971375,708.060120 739.997131,708.115479 
z"/>
<path fill="#6457F0" opacity="1.000000" stroke="none" 
	d="
M1167.003418,1062.266602 
	C1183.273926,1062.266602 1199.544434,1062.266602 1216.139160,1062.266602 
	C1216.139160,1114.173706 1216.139160,1165.735962 1216.139160,1217.976807 
	C1199.099976,1217.976807 1182.012939,1217.976807 1164.463013,1217.447876 
	C1164.333008,1209.620850 1164.725586,1202.324829 1164.984863,1195.024170 
	C1165.368286,1184.229248 1165.687988,1173.431641 1165.977905,1162.633667 
	C1166.348145,1148.838745 1166.839478,1135.043701 1166.957520,1121.246094 
	C1167.125732,1101.587646 1167.002197,1081.926514 1167.003418,1062.266602 
z"/>
<path fill="#688CF1" opacity="1.000000" stroke="none" 
	d="
M897.064514,710.217041 
	C896.192017,708.567627 895.063354,706.768066 895.084412,704.982056 
	C895.284363,688.040222 895.638184,671.099731 896.034180,654.160889 
	C896.278564,643.708313 896.716187,633.260437 896.991455,622.808411 
	C897.686523,596.416687 898.328308,570.023560 899.013306,543.631592 
	C899.314819,532.015442 899.639282,520.399597 900.030090,508.786255 
	C900.096313,506.816071 900.552246,504.859009 900.900269,502.490204 
	C924.700867,520.867615 938.665588,545.460205 942.457214,575.268738 
	C947.423096,614.308960 941.142456,651.389709 918.858093,684.570251 
	C912.694092,693.748230 904.567749,701.608337 897.064514,710.217041 
z"/>
<path fill="#699EF3" opacity="1.000000" stroke="none" 
	d="
M694.001343,461.514191 
	C721.683716,461.510498 749.366028,461.506775 777.512573,462.036621 
	C777.654663,466.360138 777.122253,470.145874 777.045532,473.940796 
	C776.629517,494.520355 776.326172,515.102173 775.521484,535.755493 
	C770.581482,535.821899 766.104065,535.823120 761.626587,535.808960 
	C738.416809,535.735718 715.207031,535.658630 691.996521,535.140381 
	C692.324158,525.412354 692.720825,516.128662 692.965332,506.840973 
	C693.363037,491.733398 693.661194,476.623260 694.001343,461.514191 
z"/>
<path fill="#6AA5F3" opacity="1.000000" stroke="none" 
	d="
M693.543579,461.407715 
	C693.661194,476.623260 693.363037,491.733398 692.965332,506.840973 
	C692.720825,516.128662 692.324158,525.412354 691.536499,535.234375 
	C666.716736,535.708008 642.356323,535.645020 617.995850,535.582092 
	C618.660706,511.180420 619.325562,486.778717 619.987427,461.940979 
	C644.351685,461.437012 668.718750,461.369141 693.543579,461.407715 
z"/>
<path fill="#6567F1" opacity="1.000000" stroke="none" 
	d="
M1142.532471,283.098175 
	C1142.998169,300.074524 1142.999756,316.982239 1143.003418,334.345825 
	C1114.312744,334.851440 1085.619995,334.901154 1056.463135,334.419006 
	C1056.331665,316.979950 1056.664429,300.072784 1056.997070,283.165588 
	C1085.354248,283.120239 1113.711304,283.074890 1142.532471,283.098175 
z"/>
<path fill="#6BCFF1" opacity="1.000000" stroke="none" 
	d="
M348.455872,1217.915039 
	C348.328552,1215.387207 348.940674,1212.938110 348.955780,1210.485352 
	C349.044800,1196.029419 348.994843,1181.572876 348.989197,1166.660889 
	C377.345612,1166.156006 405.704468,1166.106689 434.528259,1166.588867 
	C434.660614,1184.025635 434.328003,1200.930908 433.995422,1217.836182 
	C405.636780,1217.888062 377.278137,1217.940063 348.455872,1217.915039 
z"/>
<path fill="#6CC3F4" opacity="1.000000" stroke="none" 
	d="
M434.459106,1217.911133 
	C434.328003,1200.930908 434.660614,1184.025635 434.990662,1166.665039 
	C461.347839,1166.158936 487.707581,1166.108154 514.531738,1166.586182 
	C514.663330,1184.022461 514.330505,1200.929810 513.997681,1217.837280 
	C487.639404,1217.886963 461.281097,1217.936523 434.459106,1217.911133 
z"/>
<path fill="#6593E8" opacity="1.000000" stroke="none" 
	d="
M775.984070,535.683228 
	C776.326172,515.102173 776.629517,494.520355 777.045532,473.940796 
	C777.122253,470.145874 777.654663,466.360138 777.960205,462.166901 
	C795.318298,461.563965 812.408875,463.793884 829.638794,467.928497 
	C829.649841,485.201691 829.462463,502.316498 828.931885,519.420654 
	C828.613647,529.681702 827.759644,539.926147 826.732666,550.510864 
	C811.088989,540.649414 793.968506,536.732117 775.984070,535.683228 
z"/>
<path fill="#6AA5F3" opacity="1.000000" stroke="none" 
	d="
M641.996155,283.165894 
	C667.686890,283.118866 693.377563,283.071838 719.533325,283.553345 
	C719.996887,300.986237 719.995483,317.890625 719.994080,334.794983 
	C694.301819,334.846741 668.609558,334.898499 642.455688,334.415405 
	C641.994812,316.975677 641.995483,300.070770 641.996155,283.165894 
z"/>
<path fill="#6BB2F3" opacity="1.000000" stroke="none" 
	d="
M641.532471,283.095276 
	C641.995483,300.070770 641.994812,316.975677 641.992432,334.335876 
	C616.300720,334.844910 590.610718,334.898621 564.458008,334.423218 
	C564.328735,316.984650 564.662109,300.075226 564.995483,283.165833 
	C590.353210,283.118774 615.710999,283.071747 641.532471,283.095276 
z"/>
<path fill="#6BBEF4" opacity="1.000000" stroke="none" 
	d="
M564.531860,283.095123 
	C564.662109,300.075226 564.328735,316.984650 563.995117,334.343140 
	C539.302979,334.844940 514.611145,334.897644 489.457092,334.414764 
	C489.328766,316.974976 489.662537,300.070740 489.996338,283.166534 
	C514.686951,283.119171 539.377563,283.071808 564.531860,283.095123 
z"/>
<path fill="#6CC9F4" opacity="1.000000" stroke="none" 
	d="
M489.532715,283.095032 
	C489.662537,300.070740 489.328766,316.974976 488.994141,334.334412 
	C464.302155,334.844604 439.611023,334.899536 414.457520,334.418945 
	C414.328735,316.977905 414.662292,300.072449 414.995850,283.166962 
	C439.686951,283.119141 464.378021,283.071320 489.532715,283.095032 
z"/>
<path fill="#6674F1" opacity="1.000000" stroke="none" 
	d="
M1056.533203,283.096436 
	C1056.664429,300.072784 1056.331665,316.979950 1056.000122,334.342834 
	C1031.642700,334.849274 1007.284180,334.899994 982.462158,334.430420 
	C982.331421,316.995514 982.664246,300.080841 982.997009,283.166199 
	C1007.354431,283.119873 1031.711792,283.073578 1056.533203,283.096436 
z"/>
<path fill="#699BF2" opacity="1.000000" stroke="none" 
	d="
M720.457275,334.873535 
	C719.995483,317.890625 719.996887,300.986237 719.996948,283.623779 
	C744.019775,283.119019 768.043945,283.072327 792.533081,283.553650 
	C792.664307,300.987152 792.330444,317.892578 791.996582,334.798035 
	C768.304565,334.849365 744.612549,334.900726 720.457275,334.873535 
z"/>
<path fill="#6567F1" opacity="1.000000" stroke="none" 
	d="
M1031.001587,1166.200928 
	C1054.358887,1166.151855 1077.716309,1166.102783 1101.536621,1166.581909 
	C1101.665405,1184.018799 1101.331299,1200.927368 1100.997070,1217.836060 
	C1077.640869,1217.884277 1054.284424,1217.932617 1030.464111,1217.450317 
	C1030.333984,1200.013428 1030.667847,1183.107178 1031.001587,1166.200928 
z"/>
<path fill="#699BF2" opacity="1.000000" stroke="none" 
	d="
M776.995544,1217.834473 
	C754.304871,1217.884033 731.614258,1217.933472 708.461060,1217.450317 
	C707.997681,1200.013428 707.996826,1183.109253 707.996033,1166.204956 
	C731.020691,1166.155151 754.045288,1166.105347 777.533508,1166.584351 
	C777.663208,1184.020386 777.329407,1200.927368 776.995544,1217.834473 
z"/>
<path fill="#655FF0" opacity="1.000000" stroke="none" 
	d="
M1101.461182,1217.907959 
	C1101.331299,1200.927368 1101.665405,1184.018799 1102.000244,1166.654297 
	C1116.470825,1166.142334 1130.940918,1166.007935 1145.410156,1166.076904 
	C1149.839600,1166.098022 1154.279907,1166.552734 1158.690308,1167.037476 
	C1162.857788,1167.495605 1164.112793,1165.900269 1164.090454,1161.712769 
	C1163.930420,1131.767578 1164.003784,1101.821045 1164.006348,1071.875000 
	C1164.006592,1069.213257 1164.029541,1066.551636 1164.283081,1063.339722 
	C1164.700439,1062.652954 1164.847046,1062.489746 1164.963989,1062.300049 
	C1165.418213,1062.238892 1165.872437,1062.177612 1166.665039,1062.191406 
	C1167.002197,1081.926514 1167.125732,1101.587646 1166.957520,1121.246094 
	C1166.839478,1135.043701 1166.348145,1148.838745 1165.977905,1162.633667 
	C1165.687988,1173.431641 1165.368286,1184.229248 1164.984863,1195.024170 
	C1164.725586,1202.324829 1164.333008,1209.620850 1163.999146,1217.376343 
	C1143.307251,1217.882446 1122.616211,1217.931030 1101.461182,1217.907959 
z"/>
<path fill="#6BB2F3" opacity="1.000000" stroke="none" 
	d="
M514.460815,1217.913818 
	C514.330505,1200.929810 514.663330,1184.022461 514.994873,1166.659302 
	C537.020081,1166.152466 559.046448,1166.101318 581.536316,1166.581177 
	C581.666504,1184.020996 581.333252,1200.929810 581.000000,1217.838501 
	C558.974609,1217.889160 536.949280,1217.939697 514.460815,1217.913818 
z"/>
<path fill="#6AA5F3" opacity="1.000000" stroke="none" 
	d="
M707.532837,1166.130859 
	C707.996826,1183.109253 707.997681,1200.013428 707.997437,1217.375732 
	C686.306030,1217.883301 664.615723,1217.932983 642.462524,1217.450684 
	C641.999207,1200.014160 641.998657,1183.109619 641.998108,1166.205078 
	C663.688599,1166.155640 685.379150,1166.106323 707.532837,1166.130859 
z"/>
<path fill="#6674F1" opacity="1.000000" stroke="none" 
	d="
M1030.537598,1166.128540 
	C1030.667847,1183.107178 1030.333984,1200.013428 1030.000488,1217.377808 
	C1008.308838,1217.884033 986.616760,1217.932129 964.461914,1217.449219 
	C964.332642,1200.012573 964.666138,1183.107056 964.999573,1166.201416 
	C986.690857,1166.153076 1008.382202,1166.104614 1030.537598,1166.128540 
z"/>
<path fill="#6890F2" opacity="1.000000" stroke="none" 
	d="
M792.459595,334.875977 
	C792.330444,317.892578 792.664307,300.987152 792.996826,283.623627 
	C814.686768,283.118469 836.377991,283.071381 858.533936,283.552826 
	C858.664246,300.986816 858.330017,317.892242 857.995789,334.797699 
	C836.304749,334.849762 814.613708,334.901825 792.459595,334.875977 
z"/>
<path fill="#6890F2" opacity="1.000000" stroke="none" 
	d="
M777.459290,1217.908691 
	C777.329407,1200.927368 777.663208,1184.020386 777.996826,1166.657715 
	C799.687500,1166.152954 821.378418,1166.103882 843.533081,1166.584229 
	C843.663513,1184.020630 843.330078,1200.927734 842.996704,1217.834839 
	C821.305481,1217.884277 799.614258,1217.933594 777.459290,1217.908691 
z"/>
<path fill="#6DD5F5" opacity="1.000000" stroke="none" 
	d="
M414.532288,283.095398 
	C414.662292,300.072449 414.328735,316.977905 413.994629,334.338623 
	C392.635651,334.845825 371.277222,334.897797 349.455536,334.869568 
	C348.994812,320.142670 348.961578,305.495728 349.037201,290.849365 
	C349.049042,288.553040 349.555359,286.259308 349.914886,283.565002 
	C371.354034,283.118347 392.711395,283.071075 414.532288,283.095398 
z"/>
<path fill="#677EF1" opacity="1.000000" stroke="none" 
	d="
M982.533142,283.096558 
	C982.664246,300.080841 982.331421,316.995514 981.998962,334.354126 
	C960.974121,334.849152 939.948975,334.900238 918.461670,334.454590 
	C918.333069,328.836243 918.892639,323.717346 918.954346,318.592468 
	C919.096558,306.785095 918.996765,294.974792 918.995117,283.165680 
	C940.019836,283.119415 961.044556,283.073151 982.533142,283.096558 
z"/>
<path fill="#6789F1" opacity="1.000000" stroke="none" 
	d="
M843.460510,1217.907959 
	C843.330078,1200.927734 843.663513,1184.020630 843.996338,1166.657959 
	C863.686829,1166.153198 883.377991,1166.104248 903.532776,1166.584229 
	C903.997620,1170.933838 904.073853,1174.756226 903.986389,1178.574707 
	C903.686707,1191.661987 903.329468,1204.748047 902.994263,1217.834473 
	C883.304260,1217.883423 863.614319,1217.932373 843.460510,1217.907959 
z"/>
<path fill="#6789F1" opacity="1.000000" stroke="none" 
	d="
M918.531494,283.095581 
	C918.996765,294.974792 919.096558,306.785095 918.954346,318.592468 
	C918.892639,323.717346 918.333069,328.836243 917.998474,334.377930 
	C898.305725,334.849182 878.614136,334.900330 858.459167,334.874573 
	C858.330017,317.892242 858.664246,300.986816 858.997620,283.623291 
	C878.687134,283.118622 898.377502,283.072052 918.531494,283.095581 
z"/>
<path fill="#6AACF3" opacity="1.000000" stroke="none" 
	d="
M641.534912,1166.129883 
	C641.998657,1183.109619 641.999207,1200.014160 641.998962,1217.376709 
	C621.974426,1217.885010 601.950684,1217.935303 581.463501,1217.912109 
	C581.333252,1200.929810 581.666504,1184.020996 581.999512,1166.656494 
	C601.690063,1166.151978 621.380920,1166.103271 641.534912,1166.129883 
z"/>
<path fill="#677EF1" opacity="1.000000" stroke="none" 
	d="
M903.458313,1217.907471 
	C903.329468,1204.748047 903.686707,1191.661987 903.986389,1178.574707 
	C904.073853,1174.756226 903.997620,1170.933838 903.996033,1166.657715 
	C924.021057,1166.153320 944.046570,1166.104614 964.535767,1166.128662 
	C964.666138,1183.107056 964.332642,1200.012573 963.998169,1217.376221 
	C943.972229,1217.883057 923.947327,1217.931763 903.458313,1217.907471 
z"/>
<path fill="#6593E8" opacity="1.000000" stroke="none" 
	d="
M526.461304,1034.186768 
	C526.490356,1034.031372 526.821228,1034.139648 526.866699,1034.216309 
	C526.912109,1034.293091 526.692932,1034.520996 526.692932,1034.520996 
	C526.692932,1034.520996 526.432251,1034.342285 526.461304,1034.186768 
z"/>
<path fill="#6457F0" opacity="1.000000" stroke="none" 
	d="
M1164.747559,1062.262695 
	C1164.847046,1062.489746 1164.700439,1062.652954 1164.385498,1062.879028 
	C1164.109863,1062.632080 1164.204712,1062.384399 1164.747559,1062.262695 
z"/>
<path fill="#6593E8" opacity="1.000000" stroke="none" 
	d="
M526.793457,461.592773 
	C526.904053,461.705505 526.664490,461.958038 526.575195,461.966339 
	C526.485840,461.974640 526.426453,461.664459 526.426453,461.664459 
	C526.426453,461.664459 526.682800,461.480072 526.793457,461.592773 
z"/>
<path fill="#000000" opacity="1.000000" stroke="none" 
	d="
M775.521484,535.755493 
	C793.968506,536.732117 811.088989,540.649414 826.657959,550.922119 
	C841.797302,562.099487 853.324585,575.706482 858.193298,593.894836 
	C865.231506,620.188293 864.234131,645.644287 847.833984,668.648804 
	C843.549011,674.659363 837.880310,679.683411 832.655762,685.448547 
	C816.710388,698.213318 799.109680,706.305115 778.848511,707.516296 
	C769.559631,708.071594 760.221924,707.818359 750.906250,707.915771 
	C747.578308,707.950623 744.249878,707.938293 740.459351,708.031494 
	C704.971375,708.060120 669.945679,708.004761 634.457397,708.033691 
	C625.541260,708.118042 617.087708,708.118042 608.343384,708.118042 
	C608.343384,650.526978 608.343384,593.508606 608.343384,535.772522 
	C611.245789,535.772522 614.169495,535.772522 617.544556,535.677307 
	C642.356323,535.645020 666.716736,535.708008 691.537231,535.676880 
	C715.207031,535.658630 738.416809,535.735718 761.626587,535.808960 
	C766.104065,535.823120 770.581482,535.821899 775.521484,535.755493 
z"/>
</svg>